<svg version="1.1" id="Layer_1" xmlns="http://www.w3.org/2000/svg" xmlns:xlink="http://www.w3.org/1999/xlink" x="0px" y="0px"
	 width="100%" viewBox="0 0 480 480" enable-background="new 0 0 480 480" xml:space="preserve">
<path fill="#003366" opacity="1.000000" stroke="none" 
	d="
M319.000000,481.000000 
	C212.666672,481.000000 106.833336,481.000000 1.000000,481.000000 
	C1.000000,321.000000 1.000000,161.000000 1.000000,1.000000 
	C161.000000,1.000000 321.000000,1.000000 481.000000,1.000000 
	C481.000000,161.000000 481.000000,321.000000 481.000000,481.000000 
	C427.166656,481.000000 373.333344,481.000000 319.000000,481.000000 
M214.205887,342.053345 
	C214.205887,342.053345 214.365799,342.435120 213.739563,342.381897 
	C213.320190,342.769470 212.900818,343.157074 212.364990,343.417511 
	C212.364990,343.417511 212.524170,343.483765 211.952805,343.615509 
	C211.686462,343.889069 211.420120,344.162628 210.721298,344.873749 
	C209.464722,346.195190 208.208160,347.516663 206.578186,348.799652 
	C206.424805,349.249359 206.271423,349.699097 206.086563,350.081116 
	C206.086563,350.081116 206.160004,350.067719 205.709152,350.350555 
	C205.487534,351.237976 205.265915,352.125366 205.055145,353.531372 
	C204.986786,353.690186 204.918427,353.848999 204.312607,354.422943 
	C204.434021,356.286133 204.555435,358.149292 204.916931,360.712921 
	C205.278168,362.141876 205.639404,363.570801 205.813705,365.271729 
	C206.110703,365.517822 206.407700,365.763947 207.110977,366.575592 
	C215.039505,376.886810 225.988052,376.193573 234.456177,364.668427 
	C235.730469,364.377686 237.004776,364.086914 238.178848,363.825653 
	C238.178848,363.825653 238.231750,363.735565 238.256546,364.387939 
	C238.635651,364.881897 239.014771,365.375854 239.851700,366.334778 
	C246.265213,375.350555 252.519180,376.008606 263.049011,369.186737 
	C264.398346,370.629486 265.694611,372.015503 266.990875,373.401520 
	C267.451996,369.403687 266.991211,366.339569 266.962067,363.271301 
	C266.865479,353.115753 266.913666,342.958679 266.932526,332.802277 
	C266.936615,330.607300 267.036926,328.427399 263.094543,330.332336 
	C262.392303,335.223358 261.690033,340.114380 260.381317,344.905060 
	C259.205231,344.109070 258.029144,343.313080 256.375854,341.898407 
	C255.633713,341.727478 254.891571,341.556549 253.431320,341.539154 
	C245.605072,340.683899 241.014359,344.705963 237.694839,350.938507 
	C236.276550,350.690613 234.858246,350.442719 233.073349,349.607697 
	C228.976395,342.475403 222.834152,340.253204 214.789642,341.899353 
	C214.789642,341.899353 214.443588,342.019287 214.443588,342.019287 
	C214.443588,342.019287 214.392044,342.423462 214.205887,342.053345 
M203.793381,341.179169 
	C202.862564,341.466370 201.931747,341.753571 200.439545,342.379730 
	C199.641479,342.626740 198.843414,342.873779 197.410645,342.619690 
	C196.079102,342.478699 194.747559,342.337708 192.829758,342.038300 
	C192.035294,342.096100 191.240829,342.153900 189.801849,342.493591 
	C187.756226,342.367462 185.710617,342.241333 183.002335,342.070923 
	C182.257751,342.378204 181.513168,342.685455 180.148819,343.017639 
	C179.428955,343.356110 178.709076,343.694550 177.217773,344.041656 
	C170.808762,339.735931 160.757233,340.208893 154.988220,349.995178 
	C153.633621,350.006226 152.279037,350.017273 150.249451,349.789886 
	C146.750092,344.339386 142.257706,340.970673 135.279785,341.472809 
	C128.730118,341.944122 124.776794,345.275177 121.975418,351.519623 
	C120.503845,354.561249 116.752045,357.506744 121.874298,361.441162 
	C123.657349,367.803436 127.137665,372.355804 134.157623,373.422424 
	C141.773926,374.579651 146.829407,371.102905 151.472748,364.873230 
	C152.833221,364.716888 154.193695,364.560547 155.597855,364.456604 
	C155.597855,364.456604 155.583908,364.523438 155.631165,365.063599 
	C155.852112,365.339142 156.073044,365.614716 156.787064,366.326691 
	C162.964035,375.080994 168.493500,375.713562 180.154709,368.999939 
	C181.400787,376.034149 180.227692,379.860626 175.574860,382.299469 
	C168.306366,386.109283 162.228958,383.501678 156.852020,377.993195 
	C156.057663,381.293732 157.966858,383.763184 162.057983,385.169403 
	C171.676498,388.475586 179.906982,385.311768 184.242493,376.334106 
	C184.498932,373.753510 184.576157,371.136414 185.091019,368.608459 
	C185.331467,367.427856 186.418747,366.419739 187.122208,365.333466 
	C187.742645,366.332397 188.510574,367.271301 188.947372,368.344910 
	C189.537048,369.794281 189.872101,371.347229 190.986282,373.000641 
	C191.889725,372.967529 192.793182,372.934448 194.280792,372.346375 
	C194.475433,365.434357 194.670059,358.522308 194.951981,351.039001 
	C195.313217,350.364838 195.674454,349.690674 196.683853,348.690186 
	C198.740860,347.688202 200.799484,346.689575 202.854401,345.683319 
	C204.677872,344.790375 206.703262,343.949219 203.793381,341.179169 
M328.718689,369.187866 
	C329.723236,370.588806 330.727783,371.989746 331.912445,373.641907 
	C331.912445,366.795380 331.946716,361.085175 331.905304,355.375519 
	C331.820648,343.715240 323.013733,338.182678 312.672760,343.332336 
	C311.192017,344.069763 309.931213,345.248810 308.568634,346.223480 
	C325.530151,343.107025 327.759064,344.007355 328.836792,355.193756 
	C328.797211,355.384003 328.842377,355.551392 328.061920,356.227325 
	C327.712128,356.260498 327.362305,356.293671 326.271179,355.936432 
	C321.434143,356.162506 316.353455,355.532623 311.819397,356.823212 
	C305.626953,358.585785 304.387482,365.453400 308.633026,370.378632 
	C312.891479,375.318817 322.282562,374.650604 328.718689,369.187866 
M342.170197,347.592499 
	C341.684906,345.797424 341.199646,344.002319 340.714355,342.207245 
	C340.294464,342.069275 339.874573,341.931335 339.454712,341.793365 
	C339.055817,343.113800 338.330414,344.429657 338.311768,345.755432 
	C338.202393,353.535950 338.183411,361.320251 338.330139,369.099548 
	C338.355103,370.424591 339.328491,371.731720 339.863739,373.047119 
	C340.395844,371.734161 341.254059,370.457428 341.404602,369.102051 
	C342.126404,362.604401 342.656677,356.085449 343.886658,349.210419 
	C347.636322,345.249481 352.105133,344.012665 357.494232,345.472809 
	C357.494232,352.981140 357.262115,360.315094 357.654388,367.615479 
	C357.754791,369.484161 359.629791,372.567719 361.038239,372.780060 
	C363.874573,373.207672 366.950653,372.045380 369.927795,371.539062 
	C369.785217,370.935638 369.642639,370.332245 369.670776,370.451294 
	C366.720367,370.022919 364.302002,369.671783 361.936340,368.344269 
	C361.956757,363.851379 362.252838,359.338196 361.923859,354.871033 
	C361.558838,349.914642 361.973846,345.782440 367.885529,343.873810 
	C365.624176,342.929047 363.362793,341.984283 360.683746,340.864990 
	C360.683746,338.906708 360.832611,336.433167 360.600494,333.995911 
	C360.522552,333.177521 359.474670,332.451538 358.870148,331.683319 
	C358.407471,332.429871 357.596680,333.153534 357.545776,333.927155 
	C357.377045,336.491638 357.482086,339.074097 357.482086,342.149658 
	C351.443756,341.522064 346.306946,342.058472 342.170197,347.592499 
M223.809967,161.763901 
	C218.442383,149.583618 210.393921,139.780014 198.998932,132.641006 
	C183.695007,123.053024 166.775391,119.480629 149.105698,118.877586 
	C133.036407,118.329163 117.168510,120.198967 101.777138,125.010315 
	C99.215858,125.810966 95.644890,127.639664 95.156807,129.633698 
	C94.654579,131.685501 96.948402,134.864273 98.720543,136.955078 
	C107.298279,147.075333 117.169685,156.277725 124.564804,167.174759 
	C133.101913,179.754623 139.627777,193.713333 146.846817,207.169952 
	C155.028656,222.421295 167.242935,231.188339 184.928726,230.442123 
	C192.135117,230.138062 199.280289,228.382980 207.469864,227.132919 
	C206.887863,226.651733 207.433853,227.031326 207.895340,227.495010 
	C227.688065,247.381805 238.017868,271.422272 239.233459,299.383728 
	C239.409607,303.435455 240.023468,306.873352 244.824066,307.247955 
	C248.485260,307.533661 250.206879,304.596924 250.202789,298.958344 
	C250.185165,274.631714 249.897903,250.300140 250.292404,225.979828 
	C250.665283,202.993195 258.926392,182.830536 273.892700,165.382187 
	C275.931183,163.005646 277.536102,162.432602 280.959015,163.579956 
	C294.410034,168.088745 307.619751,168.077820 318.817047,157.772156 
	C324.542664,152.502487 329.625092,146.539276 335.086029,140.975723 
	C348.579254,127.228882 363.807465,115.812889 381.305237,107.675209 
	C388.741394,104.216896 389.861908,99.526024 382.037537,94.530876 
	C365.819977,84.177437 348.258331,77.703697 329.249481,74.742020 
	C311.068146,71.909271 293.848724,74.018822 278.827301,85.065315 
	C263.654419,96.223183 254.090500,111.037857 254.120911,130.596222 
	C254.130432,136.715530 255.793839,142.608261 260.164307,147.533844 
	C265.139801,143.150146 269.443115,138.729218 274.374023,135.180206 
	C280.000336,131.130707 286.071747,127.647469 292.179321,124.342415 
	C294.949768,122.843208 298.336609,123.744347 299.061493,126.974792 
	C299.502716,128.941177 297.914795,131.588058 296.706482,133.611679 
	C296.024384,134.753983 294.290741,135.299530 292.985779,136.033997 
	C278.843079,143.994141 267.143677,154.617081 258.093872,168.105423 
	C255.598389,171.824875 253.257874,175.648300 251.436310,178.500183 
	C249.341782,168.332626 247.866196,157.604782 244.845001,147.331482 
	C240.206726,131.559433 231.042419,118.333305 219.182846,106.958290 
	C216.621170,104.501312 213.825714,103.855911 211.252396,106.162872 
	C208.440414,108.683815 208.690384,111.736427 211.460358,114.440605 
	C212.055405,115.021530 212.560440,115.694290 213.151871,116.279335 
	C229.506790,132.457825 238.557632,152.067215 239.105759,175.019531 
	C239.698303,199.831940 239.331604,224.667313 239.356476,249.492691 
	C239.357147,250.159988 239.049103,250.827560 238.696396,252.262268 
	C227.193924,230.098511 211.824951,212.608826 191.359055,199.728836 
	C188.311676,197.811005 187.024216,194.978058 189.383224,191.664825 
	C191.724808,188.376038 194.634857,188.595261 197.590454,190.899490 
	C206.181320,197.597061 214.756912,204.314178 223.518234,211.164169 
	C223.463669,211.245041 223.860352,210.756577 224.148071,210.210663 
	C224.845032,208.888336 225.562729,207.569672 226.146835,206.196259 
	C232.484406,191.294876 229.369278,176.837738 223.809967,161.763901 
M280.319550,385.790131 
	C281.635284,383.969574 283.338867,382.315369 284.202606,380.300995 
	C289.108612,368.859222 293.820526,357.334106 298.576996,345.828491 
	C299.038788,344.711456 299.353912,343.533813 299.798431,342.200317 
	C298.807343,342.142761 297.967010,341.950623 297.893890,342.110199 
	C293.781342,351.082245 289.732727,360.083588 285.452271,369.582489 
	C281.742554,361.134979 278.274323,353.078552 274.631744,345.101715 
	C274.035828,343.796814 272.671326,342.842896 271.662048,341.726776 
	C270.747314,343.039642 270.724976,343.399109 270.855164,343.690399 
	C274.173279,351.114258 277.650543,358.471405 280.773193,365.976196 
	C282.159485,369.307892 285.205048,372.559113 282.587769,376.628601 
	C280.668152,379.613342 278.698914,382.566193 276.422363,386.035248 
	C277.168060,386.035248 278.407043,386.035248 280.319550,385.790131 
z"/>
<path fill="#ACFD5C" opacity="1.000000" stroke="none" 
	d="
M223.930298,162.126923 
	C229.369278,176.837738 232.484406,191.294876 226.146835,206.196259 
	C225.562729,207.569672 224.845032,208.888336 224.148071,210.210663 
	C223.860352,210.756577 223.463669,211.245041 223.518234,211.164169 
	C214.756912,204.314178 206.181320,197.597061 197.590454,190.899490 
	C194.634857,188.595261 191.724808,188.376038 189.383224,191.664825 
	C187.024216,194.978058 188.311676,197.811005 191.359055,199.728836 
	C211.824951,212.608826 227.193924,230.098511 238.696396,252.262268 
	C239.049103,250.827560 239.357147,250.159988 239.356476,249.492691 
	C239.331604,224.667313 239.698303,199.831940 239.105759,175.019531 
	C238.557632,152.067215 229.506790,132.457825 213.151871,116.279335 
	C212.560440,115.694290 212.055405,115.021530 211.460358,114.440605 
	C208.690384,111.736427 208.440414,108.683815 211.252396,106.162872 
	C213.825714,103.855911 216.621170,104.501312 219.182846,106.958290 
	C231.042419,118.333305 240.206726,131.559433 244.845001,147.331482 
	C247.866196,157.604782 249.341782,168.332626 251.436310,178.500183 
	C253.257874,175.648300 255.598389,171.824875 258.093872,168.105423 
	C267.143677,154.617081 278.843079,143.994141 292.985779,136.033997 
	C294.290741,135.299530 296.024384,134.753983 296.706482,133.611679 
	C297.914795,131.588058 299.502716,128.941177 299.061493,126.974792 
	C298.336609,123.744347 294.949768,122.843208 292.179321,124.342415 
	C286.071747,127.647469 280.000336,131.130707 274.374023,135.180206 
	C269.443115,138.729218 265.139801,143.150146 260.164307,147.533844 
	C255.793839,142.608261 254.130432,136.715530 254.120911,130.596222 
	C254.090500,111.037857 263.654419,96.223183 278.827301,85.065315 
	C293.848724,74.018822 311.068146,71.909271 329.249481,74.742020 
	C348.258331,77.703697 365.819977,84.177437 382.037537,94.530876 
	C389.861908,99.526024 388.741394,104.216896 381.305237,107.675209 
	C363.807465,115.812889 348.579254,127.228882 335.086029,140.975723 
	C329.625092,146.539276 324.542664,152.502487 318.817047,157.772156 
	C307.619751,168.077820 294.410034,168.088745 280.959015,163.579956 
	C277.536102,162.432602 275.931183,163.005646 273.892700,165.382187 
	C258.926392,182.830536 250.665283,202.993195 250.292404,225.979828 
	C249.897903,250.300140 250.185165,274.631714 250.202789,298.958344 
	C250.206879,304.596924 248.485260,307.533661 244.824066,307.247955 
	C240.023468,306.873352 239.409607,303.435455 239.233459,299.383728 
	C238.017868,271.422272 227.688065,247.381805 207.895340,227.495010 
	C207.433853,227.031326 206.887863,226.651733 207.469864,227.132919 
	C199.280289,228.382980 192.135117,230.138062 184.928726,230.442123 
	C167.242935,231.188339 155.028656,222.421295 146.846817,207.169952 
	C139.627777,193.713333 133.101913,179.754623 124.564804,167.174759 
	C117.169685,156.277725 107.298279,147.075333 98.720543,136.955078 
	C96.948402,134.864273 94.654579,131.685501 95.156807,129.633698 
	C95.644890,127.639664 99.215858,125.810966 101.777138,125.010315 
	C117.168510,120.198967 133.036407,118.329163 149.105698,118.877586 
	C166.775391,119.480629 183.695007,123.053024 198.998932,132.641006 
	C210.393921,139.780014 218.442383,149.583618 223.930298,162.126923 
z"/>
<path fill="#E3E9EE" opacity="1.000000" stroke="none" 
	d="
M183.628342,376.877808 
	C179.906982,385.311768 171.676498,388.475586 162.057983,385.169403 
	C157.966858,383.763184 156.057663,381.293732 156.852020,377.993195 
	C162.228958,383.501678 168.306366,386.109283 175.574860,382.299469 
	C180.227692,379.860626 181.400787,376.034149 180.154709,368.999939 
	C168.493500,375.713562 162.964035,375.080994 156.491730,365.849945 
	C155.992233,365.089935 155.788071,364.806702 155.583908,364.523438 
	C155.583908,364.523438 155.597855,364.456604 155.487732,364.059753 
	C155.518600,359.106323 155.659592,354.549744 155.800568,349.993195 
	C160.757233,340.208893 170.808762,339.735931 177.734909,344.358765 
	C178.943619,345.675354 179.635178,346.674896 181.018616,348.674377 
	C180.895309,345.872345 180.831955,344.432526 180.768585,342.992706 
	C181.513168,342.685455 182.257751,342.378204 183.388016,342.551636 
	C183.725235,354.314178 183.676788,365.595978 183.628342,376.877808 
M180.707336,361.812042 
	C180.709900,359.656281 180.756866,357.499481 180.706314,355.344971 
	C180.577866,349.869934 176.770172,345.602722 171.398788,344.855042 
	C164.549942,343.901733 159.514511,347.434143 157.955536,354.285675 
	C156.289673,361.606903 159.947983,368.420074 166.678482,370.531189 
	C172.274323,372.286346 177.942459,369.086823 180.707336,361.812042 
z"/>
<path fill="#E5EAF0" opacity="1.000000" stroke="none" 
	d="
M263.760559,329.993195 
	C267.036926,328.427399 266.936615,330.607300 266.932526,332.802277 
	C266.913666,342.958679 266.865479,353.115753 266.962067,363.271301 
	C266.991211,366.339569 267.451996,369.403687 266.990875,373.401520 
	C265.694611,372.015503 264.398346,370.629486 263.049011,369.186737 
	C252.519180,376.008606 246.265213,375.350555 239.533783,365.805695 
	C238.887848,364.762939 238.559799,364.249237 238.231750,363.735565 
	C238.231750,363.735565 238.178848,363.825653 238.225113,363.507385 
	C238.284088,359.316345 238.296783,355.443573 238.309494,351.570770 
	C241.014359,344.705963 245.605072,340.683899 254.085754,341.691101 
	C255.444473,342.067719 256.148773,342.292419 256.853058,342.517090 
	C258.029144,343.313080 259.205231,344.109070 260.845703,345.247925 
	C261.762848,346.412262 262.215576,347.233795 262.668335,348.055298 
	C263.032410,347.803467 263.396484,347.551636 263.760559,347.299774 
	C263.760559,341.530914 263.760559,335.762054 263.760559,329.993195 
M259.248383,368.937134 
	C264.862518,365.733795 263.841156,360.294067 263.791046,355.237030 
	C263.741058,350.189117 259.841217,345.791168 254.842621,344.919647 
	C249.143906,343.926086 244.943848,345.877167 242.352859,350.721649 
	C239.469467,356.112823 240.341385,363.001068 244.458023,367.353333 
	C248.197037,371.306366 252.690338,371.895386 259.248383,368.937134 
z"/>
<path fill="#E5EAF0" opacity="1.000000" stroke="none" 
	d="
M122.625519,351.206085 
	C124.776794,345.275177 128.730118,341.944122 135.279785,341.472809 
	C142.257706,340.970673 146.750092,344.339386 150.587860,350.328430 
	C150.764771,355.511597 150.603256,360.156281 150.441742,364.800934 
	C146.829407,371.102905 141.773926,374.579651 134.157623,373.422424 
	C127.137665,372.355804 123.657349,367.803436 121.747940,360.719910 
	C121.956223,357.067780 122.290871,354.136932 122.625519,351.206085 
M125.939453,351.892761 
	C125.584953,354.806854 124.605957,357.807465 124.995567,360.618439 
	C126.071457,368.381012 133.658691,372.882629 140.407349,370.199249 
	C145.604492,368.132782 148.904984,362.957550 148.670395,357.242706 
	C148.454529,351.984406 144.682144,346.353455 140.530289,345.092285 
	C134.812988,343.355621 130.389359,345.223816 125.939453,351.892761 
z"/>
<path fill="#E8ECF1" opacity="1.000000" stroke="none" 
	d="
M215.004776,342.081238 
	C222.834152,340.253204 228.976395,342.475403 233.368744,350.297455 
	C233.677475,355.622070 233.690826,360.256927 233.704163,364.891785 
	C225.988052,376.193573 215.039505,376.886810 206.894043,366.068604 
	C206.530212,365.279755 206.304703,365.092438 206.000641,364.999756 
	C205.639404,363.570801 205.278168,362.141876 204.847107,359.935852 
	C204.801559,357.441772 204.825806,355.724762 204.850067,354.007782 
	C204.918427,353.848999 204.986786,353.690186 205.284470,353.047791 
	C205.729202,351.732056 205.944595,350.899872 206.160004,350.067719 
	C206.160004,350.067719 206.086563,350.081116 206.328033,349.963135 
	C206.696869,349.509491 206.824234,349.173798 206.951599,348.838135 
	C208.208160,347.516663 209.464722,346.195190 211.201782,344.553894 
	C211.962906,343.983948 212.243546,343.733856 212.524170,343.483765 
	C212.524170,343.483765 212.364990,343.417511 212.682693,343.383057 
	C213.455521,343.044098 213.910660,342.739594 214.365784,342.435120 
	C214.365799,342.435120 214.205887,342.053345 214.492676,342.225403 
	C214.779449,342.397461 215.004776,342.081238 215.004776,342.081238 
M226.911789,368.599640 
	C227.952942,367.306763 229.158859,366.113190 230.007721,364.704437 
	C234.503464,357.243469 230.380859,346.351318 222.586105,344.924377 
	C216.706970,343.848053 212.374603,345.833099 209.595764,350.876434 
	C206.606445,356.301819 207.444519,363.241089 211.608185,367.538971 
	C215.429184,371.483124 220.061600,371.933167 226.911789,368.599640 
z"/>
<path fill="#E4E9EF" opacity="1.000000" stroke="none" 
	d="
M279.982788,385.912689 
	C278.407043,386.035248 277.168060,386.035248 276.422363,386.035248 
	C278.698914,382.566193 280.668152,379.613342 282.587769,376.628601 
	C285.205048,372.559113 282.159485,369.307892 280.773193,365.976196 
	C277.650543,358.471405 274.173279,351.114258 270.855164,343.690399 
	C270.724976,343.399109 270.747314,343.039642 271.662048,341.726776 
	C272.671326,342.842896 274.035828,343.796814 274.631744,345.101715 
	C278.274323,353.078552 281.742554,361.134979 285.452271,369.582489 
	C289.732727,360.083588 293.781342,351.082245 297.893890,342.110199 
	C297.967010,341.950623 298.807343,342.142761 299.798431,342.200317 
	C299.353912,343.533813 299.038788,344.711456 298.576996,345.828491 
	C293.820526,357.334106 289.108612,368.859222 284.202606,380.300995 
	C283.338867,382.315369 281.635284,383.969574 279.982788,385.912689 
z"/>
<path fill="#DEE4EB" opacity="1.000000" stroke="none" 
	d="
M361.883667,369.320679 
	C364.302002,369.671783 366.720367,370.022919 369.670776,370.451294 
	C369.642639,370.332245 369.785217,370.935638 369.927795,371.539062 
	C366.950653,372.045380 363.874573,373.207672 361.038239,372.780060 
	C359.629791,372.567719 357.754791,369.484161 357.654388,367.615479 
	C357.262115,360.315094 357.494232,352.981140 357.494232,345.472809 
	C352.105133,344.012665 347.636322,345.249481 343.524170,349.005737 
	C343.129059,348.283081 343.096405,347.765106 343.063782,347.247162 
	C346.306946,342.058472 351.443756,341.522064 357.482086,342.149658 
	C357.482086,339.074097 357.377045,336.491638 357.545776,333.927155 
	C357.596680,333.153534 358.407471,332.429871 358.870117,331.683319 
	C359.474670,332.451538 360.522552,333.177521 360.600494,333.995911 
	C360.832611,336.433167 360.683746,338.906708 360.683746,340.864990 
	C363.362793,341.984283 365.624176,342.929047 367.445068,344.367798 
	C364.953827,344.976868 362.902985,345.091919 360.723755,345.214203 
	C360.723755,351.063904 360.605835,356.471313 360.776306,361.869629 
	C360.855042,364.362457 361.497040,366.837555 361.883667,369.320679 
z"/>
<path fill="#E5EAF0" opacity="1.000000" stroke="none" 
	d="
M328.990906,354.973724 
	C327.759064,344.007355 325.530151,343.107025 308.568634,346.223480 
	C309.931213,345.248810 311.192017,344.069763 312.672760,343.332336 
	C323.013733,338.182678 331.820648,343.715240 331.905304,355.375519 
	C331.946716,361.085175 331.912445,366.795380 331.912445,373.641907 
	C330.727783,371.989746 329.723236,370.588806 328.163055,368.947021 
	C327.358978,368.487823 327.150726,368.236267 327.123047,367.610107 
	C328.995209,364.099457 330.380615,360.939636 327.009521,357.646790 
	C327.012939,357.030792 327.012726,356.678802 327.012512,356.326843 
	C327.362305,356.293671 327.712128,356.260498 328.538910,355.842102 
	C329.015900,355.456848 328.990906,354.973724 328.990906,354.973724 
z"/>
<path fill="#05376A" opacity="1.000000" stroke="none" 
	d="
M183.935425,376.605957 
	C183.676788,365.595978 183.725235,354.314178 183.719345,342.573792 
	C185.710617,342.241333 187.756226,342.367462 190.098541,342.806824 
	C190.368958,353.031921 190.342667,362.943848 190.316391,372.855743 
	C189.872101,371.347229 189.537048,369.794281 188.947372,368.344910 
	C188.510574,367.271301 187.742645,366.332397 187.122208,365.333466 
	C186.418747,366.419739 185.331467,367.427856 185.091019,368.608459 
	C184.576157,371.136414 184.498932,373.753510 183.935425,376.605957 
z"/>
<path fill="#DCE3EA" opacity="1.000000" stroke="none" 
	d="
M326.641846,356.131653 
	C327.012726,356.678802 327.012939,357.030792 326.597473,357.631165 
	C322.285522,357.859528 318.297272,357.316528 314.521271,357.980530 
	C311.353790,358.537506 308.872681,360.962067 309.321442,364.751526 
	C309.797760,368.773560 312.589264,371.284943 316.318573,371.044159 
	C319.924774,370.811310 323.431946,369.044464 326.982635,367.951416 
	C327.150726,368.236267 327.358978,368.487823 327.804260,368.853333 
	C322.282562,374.650604 312.891479,375.318817 308.633026,370.378632 
	C304.387482,365.453400 305.626953,358.585785 311.819397,356.823212 
	C316.353455,355.532623 321.434143,356.162506 326.641846,356.131653 
z"/>
<path fill="#C5D1DC" opacity="1.000000" stroke="none" 
	d="
M190.651337,372.928192 
	C190.342667,362.943848 190.368958,353.031921 190.420807,342.665863 
	C191.240829,342.153900 192.035294,342.096100 193.152298,342.529053 
	C194.327362,343.808380 195.179901,344.596924 196.008804,345.674561 
	C196.002014,346.981262 196.018860,347.998901 196.035706,349.016510 
	C195.674454,349.690674 195.313217,350.364838 194.621964,351.672028 
	C194.093506,359.170471 193.895065,366.035919 193.696625,372.901337 
	C192.793182,372.934448 191.889725,372.967529 190.651337,372.928192 
z"/>
<path fill="#DCE3EA" opacity="1.000000" stroke="none" 
	d="
M342.617004,347.419830 
	C343.096405,347.765106 343.129059,348.283081 343.208374,349.187561 
	C342.656677,356.085449 342.126404,362.604401 341.404602,369.102051 
	C341.254059,370.457428 340.395844,371.734161 339.863739,373.047119 
	C339.328491,371.731720 338.355103,370.424591 338.330139,369.099548 
	C338.183411,361.320251 338.202393,353.535950 338.311768,345.755432 
	C338.330414,344.429657 339.055817,343.113800 339.454712,341.793365 
	C339.874573,341.931335 340.294464,342.069275 340.714355,342.207245 
	C341.199646,344.002319 341.684906,345.797424 342.617004,347.419830 
z"/>
<path fill="#05376A" opacity="1.000000" stroke="none" 
	d="
M150.957245,364.837097 
	C150.603256,360.156281 150.764771,355.511597 150.925354,350.447632 
	C152.279037,350.017273 153.633621,350.006226 155.394394,349.994202 
	C155.659592,354.549744 155.518600,359.106323 155.465881,364.033539 
	C154.193695,364.560547 152.833221,364.716888 150.957245,364.837097 
z"/>
<path fill="#05376A" opacity="1.000000" stroke="none" 
	d="
M234.080170,364.780090 
	C233.690826,360.256927 233.677475,355.622070 233.552048,350.591034 
	C234.858246,350.442719 236.276550,350.690613 238.002167,351.254639 
	C238.296783,355.443573 238.284088,359.316345 238.275238,363.492645 
	C237.004776,364.086914 235.730469,364.377686 234.080170,364.780090 
z"/>
<path fill="#05376A" opacity="1.000000" stroke="none" 
	d="
M263.427551,330.162781 
	C263.760559,335.762054 263.760559,341.530914 263.760559,347.299774 
	C263.396484,347.551636 263.032410,347.803467 262.668335,348.055298 
	C262.215576,347.233795 261.762848,346.412262 261.148956,345.298096 
	C261.690033,340.114380 262.392303,335.223358 263.427551,330.162781 
z"/>
<path fill="#DEE4EB" opacity="1.000000" stroke="none" 
	d="
M196.359772,348.853333 
	C196.018860,347.998901 196.002014,346.981262 196.276520,345.516663 
	C197.060349,344.420074 197.552856,343.770447 198.045349,343.120819 
	C198.843414,342.873779 199.641479,342.626740 201.097321,342.281250 
	C202.505890,342.033112 203.256683,341.883453 204.007477,341.733765 
	C206.703262,343.949219 204.677872,344.790375 202.854401,345.683319 
	C200.799484,346.689575 198.740860,347.688202 196.359772,348.853333 
z"/>
<path fill="#00235B" opacity="1.000000" stroke="none" 
	d="
M361.910004,368.832458 
	C361.497040,366.837555 360.855042,364.362457 360.776306,361.869629 
	C360.605835,356.471313 360.723755,351.063904 360.723755,345.214203 
	C362.902985,345.091919 364.953827,344.976868 367.450867,344.769745 
	C361.973846,345.782440 361.558838,349.914642 361.923859,354.871033 
	C362.252838,359.338196 361.956757,363.851379 361.910004,368.832458 
z"/>
<path fill="#05376A" opacity="1.000000" stroke="none" 
	d="
M193.988708,372.623840 
	C193.895065,366.035919 194.093506,359.170471 194.578308,351.957672 
	C194.670059,358.522308 194.475433,365.434357 193.988708,372.623840 
z"/>
<path fill="#05376A" opacity="1.000000" stroke="none" 
	d="
M122.300468,351.362854 
	C122.290871,354.136932 121.956223,357.067780 121.602554,360.406372 
	C116.752045,357.506744 120.503845,354.561249 122.300468,351.362854 
z"/>
<path fill="#05376A" opacity="1.000000" stroke="none" 
	d="
M197.727997,342.870239 
	C197.552856,343.770447 197.060349,344.420074 196.300140,345.227600 
	C195.179901,344.596924 194.327362,343.808380 193.445435,342.608276 
	C194.747559,342.337708 196.079102,342.478699 197.727997,342.870239 
z"/>
<path fill="#05376A" opacity="1.000000" stroke="none" 
	d="
M180.458710,343.005188 
	C180.831955,344.432526 180.895309,345.872345 181.018616,348.674377 
	C179.635178,346.674896 178.943619,345.675354 178.120621,344.354431 
	C178.709076,343.694550 179.428955,343.356110 180.458710,343.005188 
z"/>
<path fill="#08376A" opacity="1.000000" stroke="none" 
	d="
M204.581329,354.215363 
	C204.825806,355.724762 204.801559,357.441772 204.727081,359.585632 
	C204.555435,358.149292 204.434021,356.286133 204.581329,354.215363 
z"/>
<path fill="#05376A" opacity="1.000000" stroke="none" 
	d="
M203.900421,341.456482 
	C203.256683,341.883453 202.505890,342.033112 201.378021,342.111755 
	C201.931747,341.753571 202.862564,341.466370 203.900421,341.456482 
z"/>
<path fill="#08376A" opacity="1.000000" stroke="none" 
	d="
M205.934570,350.209137 
	C205.944595,350.899872 205.729202,351.732056 205.279037,352.788513 
	C205.265915,352.125366 205.487534,351.237976 205.934570,350.209137 
z"/>
<path fill="#08376A" opacity="1.000000" stroke="none" 
	d="
M206.764893,348.818909 
	C206.824234,349.173798 206.696869,349.509491 206.343765,349.996979 
	C206.271423,349.699097 206.424805,349.249359 206.764893,348.818909 
z"/>
<path fill="#05376A" opacity="1.000000" stroke="none" 
	d="
M256.614441,342.207764 
	C256.148773,342.292419 255.444473,342.067719 254.444794,341.614319 
	C254.891571,341.556549 255.633713,341.727478 256.614441,342.207764 
z"/>
<path fill="#08376A" opacity="1.000000" stroke="none" 
	d="
M214.052673,342.408508 
	C213.910660,342.739594 213.455521,343.044098 212.740921,343.446594 
	C212.900818,343.157074 213.320190,342.769470 214.052673,342.408508 
z"/>
<path fill="#05376A" opacity="1.000000" stroke="none" 
	d="
M238.244141,364.061768 
	C238.559799,364.249237 238.887848,364.762939 239.304871,365.573212 
	C239.014771,365.375854 238.635651,364.881897 238.244141,364.061768 
z"/>
<path fill="#05376A" opacity="1.000000" stroke="none" 
	d="
M205.907166,365.135742 
	C206.304703,365.092438 206.530212,365.279755 206.690918,365.785828 
	C206.407700,365.763947 206.110703,365.517822 205.907166,365.135742 
z"/>
<path fill="#DCE3EA" opacity="1.000000" stroke="none" 
	d="
M328.913849,355.083740 
	C328.990906,354.973724 329.015900,355.456848 328.994080,355.576355 
	C328.842377,355.551392 328.797211,355.384003 328.913849,355.083740 
z"/>
<path fill="#08376A" opacity="1.000000" stroke="none" 
	d="
M214.897217,341.990295 
	C215.004776,342.081238 214.779449,342.397461 214.585754,342.410461 
	C214.392044,342.423462 214.443588,342.019287 214.443588,342.019287 
	C214.443588,342.019287 214.789642,341.899353 214.897217,341.990295 
z"/>
<path fill="#05376A" opacity="1.000000" stroke="none" 
	d="
M155.607544,364.793518 
	C155.788071,364.806702 155.992233,365.089935 156.245178,365.631714 
	C156.073044,365.614716 155.852112,365.339142 155.607544,364.793518 
z"/>
<path fill="#08376A" opacity="1.000000" stroke="none" 
	d="
M212.238495,343.549622 
	C212.243546,343.733856 211.962906,343.983948 211.418030,344.335114 
	C211.420120,344.162628 211.686462,343.889069 212.238495,343.549622 
z"/>
<path fill="#063669" opacity="1.000000" stroke="none" 
	d="
M180.685410,362.224487 
	C177.942459,369.086823 172.274323,372.286346 166.678482,370.531189 
	C159.947983,368.420074 156.289673,361.606903 157.955536,354.285675 
	C159.514511,347.434143 164.549942,343.901733 171.398788,344.855042 
	C176.770172,345.602722 180.577866,349.869934 180.706314,355.344971 
	C180.756866,357.499481 180.709900,359.656281 180.685410,362.224487 
z"/>
<path fill="#043569" opacity="1.000000" stroke="none" 
	d="
M258.880066,369.066376 
	C252.690338,371.895386 248.197037,371.306366 244.458023,367.353333 
	C240.341385,363.001068 239.469467,356.112823 242.352859,350.721649 
	C244.943848,345.877167 249.143906,343.926086 254.842621,344.919647 
	C259.841217,345.791168 263.741058,350.189117 263.791046,355.237030 
	C263.841156,360.294067 264.862518,365.733795 258.880066,369.066376 
z"/>
<path fill="#053669" opacity="1.000000" stroke="none" 
	d="
M126.076530,351.515686 
	C130.389359,345.223816 134.812988,343.355621 140.530289,345.092285 
	C144.682144,346.353455 148.454529,351.984406 148.670395,357.242706 
	C148.904984,362.957550 145.604492,368.132782 140.407349,370.199249 
	C133.658691,372.882629 126.071457,368.381012 124.995567,360.618439 
	C124.605957,357.807465 125.584953,354.806854 126.076530,351.515686 
z"/>
<path fill="#053669" opacity="1.000000" stroke="none" 
	d="
M226.576935,368.780090 
	C220.061600,371.933167 215.429184,371.483124 211.608185,367.538971 
	C207.444519,363.241089 206.606445,356.301819 209.595764,350.876434 
	C212.374603,345.833099 216.706970,343.848053 222.586105,344.924377 
	C230.380859,346.351318 234.503464,357.243469 230.007721,364.704437 
	C229.158859,366.113190 227.952942,367.306763 226.576935,368.780090 
z"/>
<path fill="#08376A" opacity="1.000000" stroke="none" 
	d="
M327.123047,367.610107 
	C323.431946,369.044464 319.924774,370.811310 316.318573,371.044159 
	C312.589264,371.284943 309.797760,368.773560 309.321442,364.751526 
	C308.872681,360.962067 311.353790,358.537506 314.521271,357.980530 
	C318.297272,357.316528 322.285522,357.859528 326.593872,357.895203 
	C330.380615,360.939636 328.995209,364.099457 327.123047,367.610107 
z"/>
</svg>